<svg xmlns="http://www.w3.org/2000/svg" width="1440" height="900"><path d="M823,320L812,598L1043,668Z" fill="#efefef" stroke="#efefef" stroke-width="1.51"/><path d="M1043,668L1121,207L823,320Z" fill="#eee9e7" stroke="#eee9e7" stroke-width="1.51"/><path d="M1043,668L1326,191L1121,207Z" fill="#e1d9d5" stroke="#e1d9d5" stroke-width="1.51"/><path d="M1326,191L1213,32L1121,207Z" fill="#dcc0b3" stroke="#dcc0b3" stroke-width="1.51"/><path d="M1121,207L647,-114L823,320Z" fill="#f5d8cb" stroke="#f5d8cb" stroke-width="1.51"/><path d="M635,1039L1078,1058L1043,668Z" fill="#cccccc" stroke="#cccccc" stroke-width="1.51"/><path d="M823,320L464,545L812,598Z" fill="#fdfbfa" stroke="#fdfbfa" stroke-width="1.51"/><path d="M407,288L464,545L823,320Z" fill="#ffeee5" stroke="#ffeee5" stroke-width="1.51"/><path d="M1043,668L1502,711L1326,191Z" fill="#d1d1d1" stroke="#d1d1d1" stroke-width="1.51"/><path d="M647,-114L407,288L823,320Z" fill="#fedecd" stroke="#fedecd" stroke-width="1.51"/><path d="M1043,668L1078,1058L1502,711Z" fill="#c2c2c2" stroke="#c2c2c2" stroke-width="1.51"/><path d="M635,1039L1043,668L812,598Z" fill="#e0e0e0" stroke="#e0e0e0" stroke-width="1.51"/><path d="M1213,32L647,-114L1121,207Z" fill="#edc5b4" stroke="#edc5b4" stroke-width="1.51"/><path d="M464,545L635,1039L812,598Z" fill="#eae4e1" stroke="#eae4e1" stroke-width="1.51"/><path d="M1078,1058L1543,924L1502,711Z" fill="#aaaaaa" stroke="#aaaaaa" stroke-width="1.51"/><path d="M1543,924L1711,620L1502,711Z" fill="#9f9f9f" stroke="#9f9f9f" stroke-width="1.51"/><path d="M1502,711L1711,620L1326,191Z" fill="#bababa" stroke="#bababa" stroke-width="1.51"/><path d="M1578,-110L1141,-333L1213,32Z" fill="#ca9183" stroke="#ca9183" stroke-width="1.51"/><path d="M856,1285L1108,1237L1078,1058Z" fill="#a3a3a3" stroke="#a3a3a3" stroke-width="1.51"/><path d="M1078,1058L1108,1237L1543,924Z" fill="#a2a2a2" stroke="#a2a2a2" stroke-width="1.51"/><path d="M464,545L455,1063L635,1039Z" fill="#dccec6" stroke="#dccec6" stroke-width="1.51"/><path d="M635,1039L856,1285L1078,1058Z" fill="#b6b6b6" stroke="#b6b6b6" stroke-width="1.51"/><path d="M122,670L455,1063L464,545Z" fill="#e7c9bb" stroke="#e7c9bb" stroke-width="1.51"/><path d="M1213,32L1141,-333L647,-114Z" fill="#e4aa9b" stroke="#e4aa9b" stroke-width="1.51"/><path d="M1578,-110L1213,32L1326,191Z" fill="#cba493" stroke="#cba493" stroke-width="1.51"/><path d="M378,1452L856,1285L635,1039Z" fill="#aba4a1" stroke="#aba4a1" stroke-width="1.51"/><path d="M1913,338L1578,-110L1326,191Z" fill="#b19689" stroke="#b19689" stroke-width="1.51"/><path d="M64,146L122,670L407,288Z" fill="#fcc9b3" stroke="#fcc9b3" stroke-width="1.51"/><path d="M407,288L122,670L464,545Z" fill="#fbdbcc" stroke="#fbdbcc" stroke-width="1.51"/><path d="M647,-114L226,-74L407,288Z" fill="#f9bea2" stroke="#f9bea2" stroke-width="1.51"/><path d="M1141,-333L772,-396L647,-114Z" fill="#e59f94" stroke="#e59f94" stroke-width="1.51"/><path d="M1397,1372L1708,1013L1543,924Z" fill="#7f7f7f" stroke="#7f7f7f" stroke-width="1.51"/><path d="M1543,924L1708,1013L1711,620Z" fill="#8f8f8f" stroke="#8f8f8f" stroke-width="1.51"/><path d="M481,-423L226,-74L647,-114Z" fill="#ed9d86" stroke="#ed9d86" stroke-width="1.51"/><path d="M1711,620L1913,338L1326,191Z" fill="#ada7a5" stroke="#ada7a5" stroke-width="1.51"/><path d="M1708,1013L1913,338L1711,620Z" fill="#8f8f8f" stroke="#8f8f8f" stroke-width="1.51"/><path d="M226,-74L64,146L407,288Z" fill="#f8b495" stroke="#f8b495" stroke-width="1.51"/><path d="M1141,-333L1387,-428L772,-396Z" fill="#cc827b" stroke="#cc827b" stroke-width="1.51"/><path d="M1578,-110L1387,-428L1141,-333Z" fill="#ba776d" stroke="#ba776d" stroke-width="1.51"/><path d="M1726,-548L1387,-428L1578,-110Z" fill="#9e5a53" stroke="#9e5a53" stroke-width="1.51"/><path d="M856,1285L1397,1372L1108,1237Z" fill="#8c8c8c" stroke="#8c8c8c" stroke-width="1.51"/><path d="M1108,1237L1397,1372L1543,924Z" fill="#8a8a8a" stroke="#8a8a8a" stroke-width="1.51"/><path d="M772,-396L481,-423L647,-114Z" fill="#ea9d8f" stroke="#ea9d8f" stroke-width="1.51"/><path d="M226,-74L-53,-87L64,146Z" fill="#ec9171" stroke="#ec9171" stroke-width="1.51"/><path d="M-127,-597L481,-423L772,-396Z" fill="#d27567" stroke="#d27567" stroke-width="1.51"/><path d="M1913,338L1926,-143L1578,-110Z" fill="#967262" stroke="#967262" stroke-width="1.51"/><path d="M856,1285L378,1452L1397,1372Z" fill="#929292" stroke="#929292" stroke-width="1.51"/><path d="M455,1063L378,1452L635,1039Z" fill="#b5a69d" stroke="#b5a69d" stroke-width="1.51"/><path d="M106,1497L378,1452L455,1063Z" fill="#9e8072" stroke="#9e8072" stroke-width="1.51"/><path d="M122,670L-88,940L455,1063Z" fill="#d8a998" stroke="#d8a998" stroke-width="1.51"/><path d="M-350,743L-88,940L122,670Z" fill="#d59185" stroke="#d59185" stroke-width="1.51"/><path d="M64,146L-367,401L122,670Z" fill="#f1ab9b" stroke="#f1ab9b" stroke-width="1.51"/><path d="M-127,-597L-53,-87L226,-74Z" fill="#d6624f" stroke="#d6624f" stroke-width="1.51"/><path d="M1397,1372L1684,1499L1708,1013Z" fill="#606060" stroke="#606060" stroke-width="1.51"/><path d="M1708,1013L1684,1499L1913,338Z" fill="#777777" stroke="#777777" stroke-width="1.51"/><path d="M378,1452L1684,1499L1397,1372Z" fill="#767676" stroke="#767676" stroke-width="1.51"/><path d="M1926,-143L1726,-548L1578,-110Z" fill="#8e5148" stroke="#8e5148" stroke-width="1.51"/><path d="M1387,-428L1726,-548L772,-396Z" fill="#b36b67" stroke="#b36b67" stroke-width="1.51"/><path d="M-371,-14L-367,401L64,146Z" fill="#e18472" stroke="#e18472" stroke-width="1.51"/><path d="M-88,940L106,1497L455,1063Z" fill="#b38777" stroke="#b38777" stroke-width="1.51"/><path d="M378,1452L106,1497L1684,1499Z" fill="#8b8b8b" stroke="#8b8b8b" stroke-width="1.51"/><path d="M-330,1131L106,1497L-88,940Z" fill="#a4655b" stroke="#a4655b" stroke-width="1.51"/><path d="M-367,401L-350,743L122,670Z" fill="#de958c" stroke="#de958c" stroke-width="1.51"/><path d="M-381,-452L-371,-14L-53,-87Z" fill="#c84940" stroke="#c84940" stroke-width="1.51"/><path d="M-53,-87L-371,-14L64,146Z" fill="#e17b61" stroke="#e17b61" stroke-width="1.51"/><path d="M-350,743L-330,1131L-88,940Z" fill="#bc736c" stroke="#bc736c" stroke-width="1.51"/><path d="M1726,-548L-127,-597L772,-396Z" fill="#cd8986" stroke="#cd8986" stroke-width="1.51"/><path d="M481,-423L-127,-597L226,-74Z" fill="#d86c58" stroke="#d86c58" stroke-width="1.51"/><path d="M-350,743L-376,1299L-330,1131Z" fill="#a25e5b" stroke="#a25e5b" stroke-width="1.51"/><path d="M-330,1131L-376,1299L106,1497Z" fill="#8c4b45" stroke="#8c4b45" stroke-width="1.51"/><path d="M-367,401L-376,1299L-350,743Z" fill="#bc7572" stroke="#bc7572" stroke-width="1.51"/><path d="M-381,-452L-376,1299L-367,401Z" fill="#d68c88" stroke="#d68c88" stroke-width="1.51"/><path d="M-371,-14L-381,-452L-367,401Z" fill="#c75c4e" stroke="#c75c4e" stroke-width="1.51"/><path d="M-127,-597L-381,-452L-53,-87Z" fill="#be3535" stroke="#be3535" stroke-width="1.51"/></svg>